<svg width="132" height="132" viewBox="0 0 132 132" fill="none" xmlns="http://www.w3.org/2000/svg"><path d="M108.887 54.91c-.342-.214-.75-.385-1.181-.568-.862-.364-1.936-.816-2.192-1.5-.212-.561.09-1.39.379-1.986 2.04-4.194-2.677-7.087-4.228-8.037l-.134-.084c-2.253-1.38-6.443-3.955-11.654.745l-1.17 1.055c-7.113 6.42-12.466 11.249-14.59 12.18.931-2.124 5.759-7.475 12.175-14.586l1.06-1.174c4.7-5.212 2.127-9.401.745-11.654l-.083-.135c-.95-1.55-3.844-6.267-8.037-4.228-.595.29-1.428.59-1.985.38-.682-.256-1.137-1.33-1.5-2.192-.183-.43-.355-.838-.571-1.18-.797-1.276-2.908-4.66-8.431-4.026-1.984.23-3.565 1.231-4.96 2.113-1.785 1.13-2.439 1.417-3.044 1.03-3.377-2.162-8.736-3.256-13.644.155-1.493 1.038-2.512 2.687-3.497 4.28-.874 1.414-1.78 2.878-2.826 3.487-1.017.592-2.322.77-3.833.977-3.041.415-6.825.93-9.896 5.301-1.384 1.97-3.152 4.97-2.54 8.268.433 2.336 2.014 4.435 4.7 6.237 10.583 7.108 17.033 27.4 9.649 41.164-8.618 8.893-16.079 17.403-18.465 22.902a1.583 1.583 0 1 0 2.906 1.26c2.171-5.005 9.4-13.229 17.63-21.74 13.769-7.582 34.247-1.113 41.396 9.53 1.803 2.685 3.902 4.267 6.238 4.7.46.086.915.125 1.363.125 2.752 0 5.21-1.476 6.903-2.667 4.37-3.069 4.886-6.854 5.301-9.895.206-1.51.383-2.816.976-3.832.611-1.048 2.073-1.952 3.488-2.826 1.593-.986 3.242-2.005 4.281-3.499 3.411-4.908 2.317-10.265.155-13.641-.389-.607-.099-1.26 1.03-3.044.883-1.395 1.884-2.976 2.114-4.96.639-5.512-2.752-7.634-4.028-8.434Zm.879 8.068c-.146 1.266-.907 2.468-1.644 3.63-1.14 1.801-2.558 4.043-1.021 6.445 1.61 2.517 2.434 6.499-.088 10.127-.663.954-1.966 1.76-3.346 2.612-1.744 1.08-3.551 2.195-4.558 3.926-.908 1.56-1.146 3.308-1.378 5-.382 2.805-.744 5.455-3.982 7.73-2.385 1.678-4.245 2.321-5.868 2.019-1.467-.272-2.876-1.399-4.186-3.351-5.526-8.23-17.926-14.276-30.206-14.276-.265 0-.53.01-.794.016 20.924-7.66 34.967.871 40.147 4.024.326.199.62.377.882.533a1.584 1.584 0 0 0 1.615-2.726c-.284-.17-.567-.34-.85-.513-5.392-3.283-19.783-12.031-41.09-4.942 22.073-12.504 44.524-9.228 48.288-6.998a1.585 1.585 0 0 0 1.615-2.725c-3.65-2.162-21.827-5.392-41.838 2.352 13.684-8.839 25.621-11.943 40.449-13.73a1.588 1.588 0 0 0 1.383-1.76 1.577 1.577 0 0 0-1.763-1.384c-15.091 1.819-27.27 4.95-41.11 13.76 3.52-3.458 6.534-6.462 8.68-8.777a1.585 1.585 0 0 0-.083-2.238 1.582 1.582 0 0 0-2.239.084c-1.89 2.037-4.493 4.648-7.531 7.64 9.155-13.937 12.257-26.024 11.439-40.752a1.577 1.577 0 0 0-1.67-1.494 1.585 1.585 0 0 0-1.495 1.67c.867 15.593-2.946 28.165-14.264 43.618 8.409-20.5 4.618-40.15 1.91-44.725a1.585 1.585 0 0 0-2.727 1.615c2.766 4.668 6.63 26.305-4.737 47.574 6.274-19.926-2.074-33.024-5.665-38.644-.346-.543-.648-1.015-.887-1.415a1.583 1.583 0 1 0-2.725 1.615c.253.426.574.929.944 1.506 3.458 5.414 11.646 18.264 4.608 38.003.23-12.499-5.881-25.259-14.264-30.888-1.951-1.31-3.079-2.72-3.351-4.186-.3-1.617.34-3.48 2.019-5.868 2.275-3.24 4.925-3.6 7.73-3.982 1.692-.232 3.44-.47 5-1.379 1.73-1.008 2.846-2.813 3.926-4.559.853-1.378 1.658-2.682 2.612-3.345 3.627-2.52 7.609-1.7 10.127-.088 2.406 1.539 4.645.119 6.446-1.02 1.163-.737 2.365-1.497 3.631-1.645 3.524-.409 4.642 1.378 5.382 2.56.08.127.215.45.334.733.536 1.271 1.347 3.19 3.305 3.926 1.296.485 2.805.32 4.486-.497 1.142-.557 2.287.324 3.95 3.034l.085.137c1.272 2.073 2.715 4.423-.398 7.874l-1.06 1.174C72.244 52.973 69.1 56.458 71.462 59.205c.053.06.11.116.169.168 2.747 2.362 6.232-.782 19.2-12.483L92 45.835c3.448-3.112 5.799-1.671 7.873-.397l.137.085c2.71 1.662 3.59 2.807 3.035 3.95-.817 1.68-.985 3.19-.497 4.486.735 1.958 2.656 2.77 3.927 3.305.284.12.605.255.731.334 1.184.74 2.97 1.858 2.56 5.382v-.002Z" fill="#ACBDA1"/></svg>