<svg width="132" height="132" viewBox="0 0 132 132" fill="none" xmlns="http://www.w3.org/2000/svg"><path d="M23.113 54.91c.342-.214.75-.385 1.18-.568.863-.364 1.937-.816 2.193-1.5.211-.561-.09-1.39-.38-1.986-2.04-4.194 2.677-7.087 4.229-8.037l.134-.084c2.252-1.38 6.442-3.955 11.654.745l1.169 1.055c7.114 6.42 12.467 11.249 14.59 12.18-.93-2.124-5.758-7.475-12.175-14.586l-1.06-1.174c-4.7-5.212-2.126-9.401-.745-11.654l.084-.135c.95-1.55 3.843-6.267 8.037-4.228.594.29 1.427.59 1.985.38.682-.256 1.136-1.33 1.5-2.192.183-.43.355-.838.57-1.18.797-1.276 2.909-4.66 8.431-4.026 1.985.23 3.566 1.231 4.961 2.113 1.785 1.13 2.438 1.417 3.044 1.03 3.377-2.162 8.735-3.256 13.643.155 1.493 1.038 2.513 2.687 3.498 4.28.874 1.414 1.78 2.878 2.825 3.487 1.017.592 2.322.77 3.834.977 3.041.415 6.824.93 9.895 5.301 1.384 1.97 3.152 4.97 2.541 8.268-.433 2.336-2.015 4.435-4.7 6.237-10.584 7.108-17.033 27.4-9.65 41.164 8.619 8.893 16.079 17.403 18.465 22.902a1.582 1.582 0 0 1-2.321 1.954 1.587 1.587 0 0 1-.585-.694c-2.17-5.005-9.4-13.229-17.63-21.74-13.768-7.582-34.247-1.113-41.395 9.53-1.803 2.685-3.902 4.267-6.238 4.7a7.417 7.417 0 0 1-1.363.125c-2.753 0-5.21-1.476-6.903-2.667-4.37-3.069-4.886-6.854-5.302-9.895-.206-1.51-.383-2.816-.976-3.832-.61-1.048-2.072-1.952-3.488-2.826-1.593-.986-3.241-2.005-4.28-3.499-3.412-4.908-2.317-10.265-.156-13.641.389-.607.1-1.26-1.03-3.044-.882-1.395-1.884-2.976-2.114-4.96-.639-5.512 2.752-7.634 4.029-8.434Zm-.88 8.068c.147 1.266.907 2.468 1.645 3.63 1.14 1.801 2.557 4.043 1.02 6.445-1.61 2.517-2.433 6.499.088 10.127.663.954 1.966 1.76 3.347 2.612 1.744 1.08 3.55 2.195 4.557 3.926.908 1.56 1.147 3.308 1.378 5 .383 2.805.745 5.455 3.982 7.73 2.386 1.678 4.245 2.321 5.869 2.019 1.466-.272 2.875-1.399 4.186-3.351C53.831 92.886 66.23 86.84 78.51 86.84c.265 0 .53.01.794.016-20.924-7.66-34.967.871-40.147 4.024-.326.199-.62.377-.881.533a1.584 1.584 0 0 1-1.616-2.726c.285-.17.568-.34.85-.513 5.392-3.283 19.783-12.031 41.09-4.942-22.072-12.504-44.524-9.228-48.288-6.998a1.584 1.584 0 0 1-1.615-2.725c3.65-2.162 21.827-5.392 41.838 2.352-13.683-8.839-25.62-11.943-40.448-13.73a1.585 1.585 0 0 1 .38-3.144c15.09 1.819 27.269 4.95 41.11 13.76-3.521-3.458-6.535-6.462-8.68-8.777a1.585 1.585 0 0 1 .083-2.238 1.582 1.582 0 0 1 2.238.084c1.89 2.037 4.494 4.648 7.531 7.64-9.155-13.937-12.257-26.024-11.438-40.752a1.577 1.577 0 0 1 1.67-1.494 1.585 1.585 0 0 1 1.494 1.67c-.867 15.593 2.947 28.165 14.265 43.618-8.41-20.5-4.618-40.15-1.91-44.725a1.585 1.585 0 0 1 2.727 1.615c-2.766 4.668-6.63 26.305 4.737 47.574-6.275-19.926 2.074-33.024 5.664-38.644.346-.543.648-1.015.887-1.415a1.583 1.583 0 1 1 2.725 1.615 54.96 54.96 0 0 1-.943 1.506c-3.458 5.414-11.646 18.264-4.608 38.003-.23-12.499 5.88-25.259 14.263-30.888 1.952-1.31 3.079-2.72 3.352-4.186.299-1.617-.341-3.48-2.019-5.868-2.275-3.24-4.925-3.6-7.73-3.982-1.693-.232-3.44-.47-5-1.379-1.731-1.008-2.847-2.813-3.926-4.559-.853-1.378-1.658-2.682-2.613-3.345-3.626-2.52-7.608-1.7-10.127-.088-2.406 1.539-4.644.119-6.446-1.02-1.162-.737-2.364-1.497-3.63-1.645-3.525-.409-4.643 1.378-5.382 2.56-.08.127-.215.45-.335.733-.536 1.271-1.346 3.19-3.304 3.926-1.296.485-2.806.32-4.486-.497-1.142-.557-2.287.324-3.95 3.034l-.085.137c-1.272 2.073-2.715 4.423.398 7.874l1.059 1.174c11.698 12.965 14.842 16.45 12.48 19.197-.053.06-.109.116-.168.168-2.748 2.362-6.232-.782-19.2-12.483L40 45.835c-3.449-3.112-5.799-1.671-7.873-.397l-.137.085c-2.71 1.662-3.59 2.807-3.035 3.95.816 1.68.984 3.19.497 4.486-.736 1.958-2.657 2.77-3.928 3.305-.284.12-.604.255-.73.334-1.185.74-2.97 1.858-2.56 5.382v-.002Z" fill="#ACBDA1"/></svg>