<svg width="20" height="20" viewBox="0 0 20 20" fill="none" xmlns="http://www.w3.org/2000/svg"><g clip-path="url(#a)" fill="#F08080"><path d="m9.488 19.824.512-.657.512.658a.833.833 0 0 1-1.024 0Z"/><path fill-rule="evenodd" clip-rule="evenodd" d="M10 5a3.333 3.333 0 1 0 0 6.667A3.333 3.333 0 0 0 10 5ZM8.334 8.333a1.667 1.667 0 1 1 3.333 0 1.667 1.667 0 0 1-3.333 0Z"/><path fill-rule="evenodd" clip-rule="evenodd" d="m9.489 19.824.511-.657c.512.658.513.656.513.656h.002l.005-.005.018-.014.066-.053a33.97 33.97 0 0 0 3.765-3.568c.962-1.069 1.942-2.317 2.686-3.639.739-1.314 1.279-2.761 1.279-4.21a8.333 8.333 0 0 0-16.667 0c0 1.45.54 2.896 1.28 4.21.742 1.322 1.722 2.57 2.684 3.639a33.979 33.979 0 0 0 3.764 3.568l.068.053.018.014.005.005.003.001ZM5.286 3.62a6.667 6.667 0 0 1 11.381 4.714c0 1.05-.398 2.209-1.065 3.394-.662 1.178-1.558 2.325-2.47 3.34A32.33 32.33 0 0 1 10 18.09a32.322 32.322 0 0 1-3.13-3.022c-.914-1.015-1.809-2.163-2.471-3.341-.667-1.185-1.065-2.343-1.065-3.394A6.667 6.667 0 0 1 5.286 3.62Z"/></g><defs><clipPath id="a"><path fill="#fff" d="M0 0h20v20H0z"/></clipPath></defs></svg>