<svg width="1235" height="1235" viewBox="0 0 1235 1235" fill="none" xmlns="http://www.w3.org/2000/svg"><path opacity=".51" d="M652.204 156.428c16.055 2.486 31.894 6.407 47.408 11.563 15.453 5.604 30.458 12.134 44.846 19.389 14.11 7.225 27.34 14.867 39.443 22.771 11.532 7.456 21.659 14.99 30.165 22.492 10.806 10.22 23.681 29.239 27.185 38.239 4.601 8.274 22.94 25.518 40.709 34.935 16.456 6.329 36.139 13.261 58.601 20.81 24.252 7.61 49.076 15.931 72.799 24.931 20.98 9.155 37.5 19.004 47.95 29.532 4.19 10.698 1.33 22.045-7.98 33.947-13.14 12.072-28.88 24.654-44.49 37.699-11.562 13.137-17.629 26.676-16.317 40.523 9.867 13.909 26.937 28.081 49.197 42.453 24.69 14.403 47.69 28.961 65.12 43.627 9.45 14.681 8.6 29.115-2.16 43.302-18.31 14.202-41.9 28.173-67.2 41.913-23.34 13.816-42.116 27.463-54.466 40.986-4.57 13.678-2.269 27.309 5.434 40.956 12.042 13.924 25.052 27.957 36.622 42.175 9.15 14.573 13.23 29.424 11.48 44.568-7.08 15.561-19.87 31.431-37.28 47.578-20.764 16.488-43.75 33.16-67.539 49.864-23.635 16.796-46.066 33.376-66.598 49.523-18.386 15.746-34.395 30.656-48.211 44.426-11.609 12.82-21.644 24.04-30.613 33.39-11.408 10.75-34.009 18.47-46.914 15.36-8.969-4.06-19.05-9.95-30.289-17.36-11.362-7.69-23.835-16.1-37.374-24.83-13.6-7.73-28.189-14.89-43.673-21.11-15.499-4.17-31.461-6.83-47.794-7.95-16.287 1.05-32.913 3.39-49.755 6.76-16.734 4.86-33.623 10.11-50.542 15.33-16.658 5.66-33.16 10.59-49.308 14.42-15.638 3.28-30.659 4.95-44.799 4.83-13.338-1.25-25.534-4.51-36.433-9.73-9.973-6.5-18.587-14.86-25.873-24.91-6.716-11.151-12.489-23.686-17.553-37.41-5.387-14.418-10.775-29.702-16.487-45.587a757.992 757.992 0 0 0-23.48-49.6c-10.112-16.843-20.872-33.7-31.941-50.496-11.377-16.688-22.091-33.253-31.569-49.632-8.29-16.225-14.527-32.28-18.494-48.134-2.378-15.731-2.779-31.307-1.575-46.73 1.467-15.329 3.304-30.55 4.94-45.648a344.953 344.953 0 0 0-2.408-44.877c-3.288-14.835-6.685-29.223-9.587-43.132-2.516-13.925-3.257-27.356-1.852-40.292 3.087-12.922 8.49-25.333 15.9-37.205 8.429-11.856 17.908-23.171 27.819-33.916 9.262-10.744 17.969-20.949 25.857-30.597a410.376 410.376 0 0 0 16.488-27.664c3.705-8.892 7.471-17.413 11.732-25.564 4.446-8.46 10.143-16.704 17.306-24.747 8.259-8.506 18.216-16.95 29.763-25.348 12.736-8.985 26.8-17.985 41.882-27.047 15.808-9.617 32.218-19.25 48.952-28.868 16.92-10.019 33.855-19.883 50.697-29.455 16.703-9.694 33.206-18.849 49.493-27.308 16.07-8.182 32.002-15.376 47.841-21.412 15.699-5.388 31.415-9.371 47.207-11.841a234.685 234.685 0 0 1 47.702.108" stroke="#ACBDA1" stroke-width="2" stroke-linecap="round" stroke-dasharray="1 3"/><path opacity=".65" d="M679.287 176.094a252.847 252.847 0 0 1 43.462 14.383c13.691 6.43 26.594 13.717 38.552 21.681 11.727 7.932 22.346 16.234 31.727 24.743 9.007 8.095 16.653 16.203 22.88 24.226 8.259 11.03 19.803 31.422 25.049 41.063 4.949 5.967 11.012 12.152 18.848 18.649 10.511 6.313 23.586 13.149 39.451 20.568 18.619 7.428 39.526 15.544 61.966 24.309 22.888 8.782 45.028 18.13 64.868 27.951 16.33 9.634 27.71 19.599 33.07 29.759-.29 9.868-6.67 19.942-18.26 30.204-14.06 10.196-29.49 20.836-43.825 32.019-9.871 11.576-14.275 23.97-11.805 37.206 10.12 13.823 26.45 28.41 47.04 43.544 22.42 15.296 43 30.693 58.35 45.922 8.09 14.701 6.81 28.617-3.54 41.737-17.45 12.634-40.16 24.772-65.05 36.618-23.795 12-44.171 24.18-59.184 36.692-8.218 13.147-10.031 26.777-6.429 40.851 8.389 14.66 18.754 29.615 28.952 44.743 9.175 15.381 14.651 30.733 15.421 45.985-3.744 15.258-12.844 30.385-26.713 45.315-17.642 14.895-38.351 29.605-60.901 44.092-23.516 14.357-46.946 28.363-69.456 41.847a3848.585 3848.585 0 0 0-58.173 36.579c-15.573 10.35-29.373 19.27-41.704 26.46-10.834 5.92-20.784 9.86-30.259 11.67-8.68.4-17.428-1.3-26.495-5.05-8.793-4.78-18.242-11.24-28.473-19.1-10.221-8.01-21.352-16.72-33.419-25.77-12.181-8.09-25.32-15.748-39.397-22.639-14.224-5.013-29.02-8.72-44.283-11.082-15.326-.371-31.026.393-46.946 2.085-15.854 3.152-31.749 6.672-47.523 10.247-15.458 4.124-30.551 7.689-45.026 10.379-13.895 2.37-26.905 3.41-38.836 2.95-11.111-1.33-20.986-4.38-29.487-9.124-7.76-5.825-14.288-13.313-19.685-22.36-5.156-10.037-9.629-21.434-13.74-33.996-4.737-13.35-9.732-27.647-15.231-42.691-6.841-15.557-14.495-31.635-22.974-48.097-9.64-16.683-19.685-33.534-29.744-50.417-10.045-16.851-19.17-33.59-26.84-50.103-6.352-16.342-10.62-32.383-12.668-48.081-.545-15.514.716-30.746 3.381-45.678 2.768-14.878 5.772-29.585 8.457-44.144a314.958 314.958 0 0 0 .438-43.673c-2.36-14.575-4.955-28.671-7.138-42.243-1.891-13.551-2.137-26.491-.388-38.764 3.397-12.171 9.053-23.657 16.75-34.473 8.869-10.764 18.917-20.903 29.591-30.472 10.291-9.642 20.209-18.815 29.414-27.528 7.749-8.924 14.545-17.497 20.494-25.697 4.734-8.518 9.167-16.717 13.686-24.615a147.545 147.545 0 0 1 15.831-24.092c7.095-8.197 15.711-16.255 25.804-24.177 11.24-8.384 23.913-16.697 37.773-24.926 14.774-8.691 30.424-17.289 46.67-25.783a1595.956 1595.956 0 0 1 50.756-25.557c17.173-8.258 34.231-15.968 51.097-22.948 16.8-6.69 33.362-12.423 49.657-17.014 16.189-3.963 32.145-6.597 47.874-7.761 15.64-.35 31.077.849 46.268 3.577" stroke="#ACBDA1" stroke-width="2" stroke-linecap="round" stroke-dasharray="8 10"/><path opacity=".6" d="M697.56 196.336c14.031 4.408 27.127 10.025 39.282 16.662 12.005 7.037 22.98 14.848 32.89 23.24 9.71 8.379 18.284 17.065 25.695 25.929 7.23 8.495 13.352 16.989 18.416 25.364 7.409 11.732 20.905 33.856 29.108 44.61 7.427 6.886 16.351 14.093 27.213 21.716 13.272 7.56 28.768 15.701 46.421 24.475 19.457 8.796 40.123 18.201 61.136 28.123 20.337 9.747 38.859 19.782 54.219 29.947 11.51 9.618 17.99 19.144 18.81 28.428-3.98 8.697-12.98 17.259-25.93 25.804-14.21 8.462-28.743 17.391-41.469 27.075-8.056 10.395-10.842 22.006-7.384 34.877 10.192 13.874 25.623 28.866 44.463 44.653 20.14 15.972 38.32 31.979 51.64 47.575 6.77 14.667 5.07 28.084-4.89 40.251-16.54 11.265-38.22 21.752-62.43 31.849-23.901 10.188-45.375 20.751-62.558 31.955-11.422 12.147-17.081 25.205-17.542 39.11 4.477 14.809 11.621 30.168 19.658 45.825 8.201 15.931 14.048 31.745 16.372 47.231-1.131 15.213-6.976 29.913-17.321 44.021-14.069 13.658-31.676 26.75-51.816 39.234-21.889 12.064-44.643 23.521-67.394 34.293-22.379 10.247-43.67 19.637-63.506 27.997-18.398 7.57-35.129 13.84-50.285 18.56-13.694 3.65-26.143 5.57-37.626 5.62-10.494-1.1-20.491-4.05-30.265-8.79-9.301-5.54-18.754-12.54-28.529-20.79-9.705-8.3-19.973-17.25-30.93-26.503-11.1-8.359-22.995-16.393-35.712-23.796a245.976 245.976 0 0 0-40.353-13.728c-14.087-1.594-28.473-2.187-42.98-1.923-14.515 1.635-28.946 3.671-43.084 5.843-13.87 2.802-27.183 5.2-39.722 6.975-11.991 1.65-22.989 2.24-32.801 1.612-13.099-2.624-32.411-16.514-39.213-27.802-4.328-8.941-8.265-19.213-12.08-30.67-4.646-12.307-9.687-25.668-15.324-39.893-6.885-14.87-14.488-30.403-22.717-46.462-9.075-16.366-18.25-33.012-27.133-49.74-8.54-16.727-15.929-33.322-21.705-49.64-4.36-16.071-6.671-31.758-6.831-46.998 1.179-15.004 3.987-29.621 7.992-43.881 3.954-14.236 7.992-28.288 11.591-42.216a289.35 289.35 0 0 0 3.1-42.267c-1.499-14.261-3.284-28.049-4.789-41.282-1.276-13.201-1.077-25.693.945-37.412 3.599-11.511 9.388-22.196 17.172-32.099 9.086-9.749 19.481-18.83 30.663-27.299 11.085-8.562 22-16.695 32.364-24.454 9.131-8.09 17.323-15.924 24.595-23.546 5.959-8.041 11.38-15.91 16.552-23.564 4.671-8.084 9.782-15.966 15.626-23.634 6.287-8.042 13.795-15.895 22.599-23.548 9.759-8.001 20.91-15.82 33.3-23.463 13.334-7.931 27.702-15.667 42.847-23.169a947.017 947.017 0 0 1 48.611-21.929c16.833-6.872 33.706-13.146 50.444-18.691 16.782-5.195 33.322-9.458 49.49-12.636 16.128-2.559 31.856-3.85 47.115-3.805 15.161.843 29.858 3.085 43.975 6.774" stroke="#ACBDA1" stroke-width="2" stroke-linecap="round"/><path opacity=".94" d="M709.31 216.001c12.805 5.15 24.532 11.347 35.195 18.453 10.516 7.5 19.944 15.651 28.303 24.299 8.27 8.691 15.501 17.665 21.755 26.777 6.312 8.839 11.843 17.716 16.756 26.524 5.343 8.427 10.475 16.808 15.704 25.178a317.529 317.529 0 0 0 21.32 24.536c9.794 8.214 21.16 16.828 34.288 25.916 15.038 9.087 31.736 18.752 49.771 28.956 18.89 10.12 37.962 20.642 56.334 31.408 16.874 10.319 31.174 20.558 41.844 30.522 7.86 13.437-6.24 36.634-25.1 47.095-13.683 6.946-26.882 14.517-37.786 23.086-6.215 9.607-7.499 20.731-3.259 33.484 10.064 14.019 24.45 29.377 41.445 45.659 17.87 16.485 33.71 32.88 45.04 48.655 5.49 14.52 3.39 27.459-6.18 38.778-15.6 10.056-36.15 19.094-59.492 27.551-23.636 8.456-45.735 17.321-64.589 26.961-14.078 10.777-23.185 22.747-27.474 35.879.506 14.335 4.104 29.492 9.375 45.166 6.394 16.105 11.639 32.12 14.555 47.731.566 15.232-2.685 29.707-9.88 43.288-10.525 12.835-24.618 24.714-41.595 35.61-19.125 10.167-39.821 19.412-61.29 27.697-21.842 7.6-43.315 14.21-63.922 19.74-19.775 4.73-38.201 8.26-55.193 10.41-15.783 1.22-30.204.95-43.401-.91-12.208-2.78-23.535-7.09-34.201-12.93-10.116-6.42-19.951-14.08-29.693-22.753-9.595-8.629-19.417-17.812-29.593-27.26-10.328-8.597-21.205-16.917-32.663-24.73-11.79-6.274-23.933-11.566-36.359-15.829-12.701-2.617-25.567-4.322-38.413-5.233-12.968.389-25.693 1.193-38.013 2.242-12.145 1.702-23.614 3.202-34.244 4.251-14.821 1.223-38.388-1.675-47.101-6.467-7.482-7.291-19.709-29.906-25.796-45.092-4.982-11.428-10.391-23.958-16.365-37.462-7.036-14.221-14.572-29.198-22.458-44.754-8.374-15.93-16.522-32.175-24.055-48.492-6.939-16.285-12.51-32.402-16.356-48.165-2.41-15.47-2.803-30.476-1.224-44.963 2.766-14.201 6.957-27.985 12.128-41.401 4.979-13.409 9.915-26.686 14.332-39.901a270.832 270.832 0 0 0 5.507-40.644c-.649-13.891-1.646-27.337-2.493-40.229-.678-12.872-.067-24.978 2.202-36.207 3.724-10.947 9.51-20.978 17.263-30.098 9.106-8.876 19.628-16.99 31.085-24.461 11.642-7.526 23.324-14.649 34.669-21.45 10.366-7.168 19.897-14.2 28.54-21.139 7.363-7.451 14.005-14.851 20.17-22.163 5.421-7.82 10.91-15.515 16.764-23.069 5.95-7.927 12.772-15.652 20.59-23.162 8.536-7.767 18.265-15.278 29.164-22.506 11.744-7.409 24.552-14.48 38.248-21.202 14.369-6.767 29.386-13.095 44.795-18.896 15.818-5.65 31.797-10.651 47.726-14.904 16.081-3.857 31.946-6.781 47.448-8.679 15.479-1.271 30.483-1.364 44.907-.225 14.325 1.892 27.999 5.05 40.95 9.521" stroke="#ACBDA1" stroke-width="2" stroke-linecap="round" stroke-dasharray="1 11"/><path opacity=".44" d="M717.677 234.846c11.548 5.741 22.043 12.398 31.5 19.864a198.34 198.34 0 0 1 24.994 25.18c7.367 8.965 13.925 18.227 19.801 27.677 6.1 9.289 11.788 18.668 17.249 28.11 6.107 9.211 12.398 18.508 19.182 27.931 7.915 9.237 16.769 18.73 26.783 28.543 11.546 9.743 24.454 19.944 38.753 30.613 15.552 10.614 32.065 21.684 49.091 33.094 17.043 11.127 33.401 22.344 48.241 33.475 12.829 10.371 22.679 20.298 28.779 29.587 2.6 8.178.91 15.613-5.05 22.323-8.71 5.867-20.293 11.447-33.61 17.023-12.653 5.784-24.199 12.404-33.19 20.245-4.477 9.182-4.482 20.126.316 32.912 9.735 14.216 22.938 29.888 38.061 46.533 15.613 16.773 29.173 33.383 38.603 49.165 4.24 14.297 1.72 26.729-7.47 37.295-14.64 9-34.02 16.741-56.29 23.709-23.044 6.807-45.347 13.942-65.307 21.868-16.171 9.104-28.189 19.573-35.942 31.406-3.249 13.266-3.271 27.597-1.148 42.677 3.972 15.745 7.819 31.534 10.412 46.992 1.305 15.132-.199 29.419-4.878 42.625-7.362 12.316-18.008 23.375-31.51 33.14-15.725 8.784-33.438 16.337-52.413 22.627a538.149 538.149 0 0 1-59.926 12.68c-19.587 2.2-38.309 3.19-55.885 2.88-16.733-1.1-32.218-3.51-46.444-7.28-13.389-4.49-25.715-10.27-37.131-17.24-10.857-7.405-21.142-15.785-30.989-24.955-9.701-9.064-19.272-18.523-28.884-28.171-9.796-8.85-19.844-17.435-30.192-25.545-10.757-6.749-21.626-12.615-32.599-17.514a261.306 261.306 0 0 0-33.867-7.869c-11.404-.637-22.461-.803-33.028-.667-15.47 1.191-42.162 2.618-52.98 1.846-9.581-2.214-24.649-13.057-30.938-22.08-4.581-7.323-9.12-15.951-13.825-25.785-5.566-10.742-11.506-22.637-17.847-35.532-7.131-13.607-14.499-28.005-21.886-43.003-7.517-15.326-14.507-30.917-20.596-46.568-5.249-15.552-8.99-30.876-10.955-45.783-.548-14.527.805-28.568 3.964-42.022 4.157-13.18 9.523-25.93 15.674-38.34 5.836-12.485 11.504-24.89 16.591-37.286a254.074 254.074 0 0 0 7.686-38.838c.169-13.452-.092-26.53-.267-39.07-.093-12.547.916-24.293 3.393-35.116 3.824-10.48 9.559-19.956 17.157-28.427 8.998-8.145 19.452-15.434 30.955-22.018 11.938-6.586 24.152-12.738 36.257-18.569 11.399-6.228 22.148-12.371 32.116-18.483a343.119 343.119 0 0 0 24.199-20.279c6.497-7.391 12.795-14.76 19.116-22.041 6.117-7.743 12.745-15.305 20.061-22.636 7.696-7.59 16.351-14.886 25.979-21.82 10.283-7.034 21.555-13.652 33.667-19.786 12.744-6.095 26.165-11.641 40.079-16.561 14.318-4.707 28.91-8.692 43.568-11.854 14.811-2.748 29.484-4.572 43.864-5.387 14.335-.218 28.232.691 41.543 2.732 13.169 2.755 25.661 6.68 37.398 11.769" stroke="#ACBDA1" stroke-width="2" stroke-linecap="round" stroke-dasharray="6 1"/><path opacity=".32" d="M725.937 253.568a175.191 175.191 0 0 1 28.311 21.01c8.383 8.151 15.978 16.883 22.845 26.072 6.917 9.322 13.31 18.994 19.309 28.932 6.333 9.88 12.552 19.982 18.896 30.278 7.027 10.185 14.511 20.603 22.665 31.302 9.197 10.589 19.331 21.538 30.509 32.872 12.322 11.262 25.642 22.94 39.796 34.99 14.791 11.841 29.832 23.938 44.652 36.102 14.167 11.611 27.009 22.982 37.813 33.898 11.367 14.446 12.747 37.244 2.419 45.599-9.812 4.582-21.522 8.959-34.073 13.52-11.265 5.001-21.024 11.049-28.133 18.566-2.901 9.049-1.863 20.041 3.242 32.99 9.197 14.437 21.093 30.345 34.308 47.182 13.409 16.892 24.77 33.492 32.354 49.13 3.07 13.975.17 25.886-8.674 35.743-13.714 8.081-31.852 14.682-52.905 20.309-22.184 5.26-44.257 10.71-64.808 16.851-17.655 7.255-31.988 15.898-42.672 25.982-6.675 11.657-10.179 24.58-11.262 38.476 1.176 14.777 2.993 29.822 4.508 44.706 1.177 14.728.523 28.667-2.416 41.485-4.886 11.937-12.498 22.477-22.652 31.522-12.185 7.903-26.42 14.315-42.215 19.245-16.945 3.85-34.618 6.32-52.514 7.44-18.053.2-35.705-.87-52.601-3.19-16.442-3.1-31.89-7.39-46.238-12.83-13.728-6.054-26.398-13.15-38.096-21.237-11.234-8.361-21.718-17.466-31.573-27.162-9.739-9.521-19.103-19.299-28.246-29.144-9.34-9.128-18.675-17.958-28.074-26.302-9.83-7.17-19.599-13.478-29.254-18.889-10.125-4.137-20.088-7.457-29.787-10.022a361.613 361.613 0 0 0-28.803-3.13c-13.564.027-37.163-.168-47.007-1.355-9.166-2.402-24.828-12.902-32.046-21.496-5.308-6.987-10.652-15.22-16.135-24.639-6.212-10.297-12.645-21.694-19.257-34.079a769.264 769.264 0 0 1-20.814-41.116c-6.527-14.541-12.216-29.3-16.783-44.024-3.558-14.518-5.542-28.753-5.743-42.513a145.924 145.924 0 0 1 8.548-38.389c5.307-11.963 11.622-23.539 18.539-34.828 6.497-11.444 12.735-22.9 18.361-34.434a240.61 240.61 0 0 0 9.618-36.827c.917-12.954 1.395-25.609 1.863-37.79.479-12.21 1.89-23.6 4.577-34.077 3.89-10.083 9.531-19.11 16.917-27.068 8.76-7.535 18.991-14.151 30.365-19.983 12.01-5.73 24.485-10.977 37.086-15.898 12.196-5.251 23.95-10.417 35.095-15.627 10.147-5.807 19.571-11.749 28.306-17.829 7.816-6.714 15.22-13.514 22.419-20.34 6.741-7.323 13.675-14.543 20.969-21.581a241.623 241.623 0 0 1 24.159-21c9.155-6.731 19.12-12.983 29.821-18.685 11.157-5.6 22.983-10.56 35.281-14.835 12.656-3.996 25.62-7.221 38.723-9.572 13.227-1.927 26.414-2.897 39.371-2.884 12.905.603 25.435 2.269 37.457 5.047 11.842 3.403 23.098 7.906 33.665 13.521" stroke="#ACBDA1" stroke-width="2" stroke-linecap="round" stroke-dasharray="9 2"/><path opacity=".8" d="M736.646 273.507c9.262 6.541 17.784 13.933 25.631 22.038 7.702 8.462 14.828 17.528 21.491 27.131 6.732 9.753 13.185 19.938 19.515 30.508 6.67 10.605 13.471 21.557 20.569 32.828a1084.48 1084.48 0 0 0 24.953 34.786c9.763 11.895 20.301 24.174 31.599 36.795 11.97 12.483 24.504 25.255 37.321 38.187 12.865 12.564 25.389 25.094 37.095 37.374 10.658 11.486 19.586 22.414 26.258 32.563 5.341 12.918-2.583 31.833-15.173 38.287-10.151 3.556-21.381 7.066-32.761 10.982-9.68 4.615-17.629 10.5-23.018 17.995-1.568 9.198.234 20.387 5.377 33.555 8.472 14.65 18.962 30.683 30.266 47.539 11.248 16.831 20.538 33.237 26.384 48.567 1.939 13.554-1.358 24.936-9.864 34.126-12.798 7.256-29.659 12.854-49.385 17.296-21.09 3.862-42.56 7.705-63.175 12.052-18.55 5.327-34.532 11.946-47.528 19.977-9.552 9.633-16.193 20.661-20.371 32.798-1.715 13.246-2.249 26.99-2.38 40.78.295 13.897-.341 27.154-2.393 39.419-3.208 11.524-8.456 21.639-15.756 30.22-8.91 7.416-19.717 13.18-32.07 17.3-13.54 2.97-28.049 4.36-43.108 4.26a275.323 275.323 0 0 1-46.14-7.24c-15.017-4.515-29.37-10.164-42.868-16.885-13.131-7.233-25.381-15.373-36.709-24.317a344.951 344.951 0 0 1-30.833-28.984c-9.496-9.931-18.514-19.984-27.136-30.012-8.866-9.376-17.545-18.413-26.095-26.986-9.018-7.532-17.817-14.236-26.394-20.079-9.092-4.737-17.93-8.683-26.47-11.901-13.244-3.187-37.933-6.634-49.076-7.757-10.844-1.107-29.979-6.1-38.556-10.741-8.834-6.55-26.549-26.276-35.844-39.587-6.749-10.014-13.478-21.052-20.133-32.97-6.827-12.437-13.286-25.503-19.133-38.988-5.381-13.58-9.71-27.278-12.734-40.829-1.948-13.271-2.285-26.171-.915-38.539 2.583-11.941 6.77-23.346 12.389-34.208 6.194-10.637 13.224-20.948 20.684-31.048 6.959-10.343 13.611-20.791 19.633-31.421a228.81 228.81 0 0 0 11.264-34.68c1.618-12.392 2.788-24.58 3.892-36.357 1.04-11.823 2.857-22.89 5.783-33.035 3.95-9.75 9.472-18.404 16.599-25.963 8.441-7.051 18.337-13.126 29.423-18.344 11.847-4.993 24.36-9.432 37.178-13.497 12.712-4.282 25.214-8.473 37.28-12.673 11.345-4.779 22.055-9.726 32.121-14.861 9.196-5.797 17.894-11.768 26.195-17.833 7.725-6.629 15.382-13.255 23.112-19.746 7.557-6.857 15.464-13.438 23.821-19.664a232.366 232.366 0 0 1 27.178-17.459c9.884-5.182 20.301-9.668 31.155-13.432a227.181 227.181 0 0 1 33.966-7.867c11.603-1.328 23.21-1.689 34.671-1.049 11.366 1.19 22.47 3.413 33.17 6.724a158.88 158.88 0 0 1 30.031 14.859" stroke="#ACBDA1" stroke-width="2" stroke-linecap="round" stroke-dasharray="6 6"/><path opacity=".1" d="M751.076 296.292c8.298 6.831 16.045 14.523 23.335 22.967 7.141 8.785 13.931 18.223 20.448 28.268 6.586 10.24 13.088 20.995 19.631 32.228 6.845 11.325 13.903 23.099 21.323 35.277a1620.801 1620.801 0 0 0 25.22 37.742c9.443 12.881 19.388 26.067 29.705 39.506 10.609 13.158 21.283 26.421 31.753 39.609 10.128 12.618 19.458 24.895 27.567 36.638 9.42 15.726 14.843 40.608 9.794 49.374-5.852 4.425-13.834 8.054-23.534 11.127-9.887 2.867-20.207 5.922-30.152 9.582-8.04 4.615-14.299 10.644-18.178 18.408-.54 9.509 1.74 21.008 6.672 34.389 7.576 14.787 16.586 30.819 25.991 47.518 9.187 16.582 16.491 32.625 20.728 47.491.859 13.066-2.787 23.884-10.951 32.411-11.917 6.544-27.502 11.271-45.824 14.666-19.784 2.626-40.328 5.002-60.554 7.636-18.834 3.401-35.821 7.9-50.479 13.705-11.803 7.341-21.051 16.091-27.958 26.031-4.487 11.206-7.468 23.101-9.552 35.284-1.095 12.559-2.398 24.724-4.321 36.119-2.371 10.89-6.07 20.504-11.219 28.673-6.243 7.107-14.017 12.565-23.151 16.346-10.128 2.598-21.283 3.553-33.144 2.923-12.411-1.662-25.089-4.749-37.727-9.182-12.76-5.217-25.147-11.583-36.999-18.976a288.318 288.318 0 0 1-33.072-26.014 386.039 386.039 0 0 1-28.547-29.995c-8.888-10.164-17.292-20.382-25.257-30.505-8.244-9.536-16.229-18.741-24.015-27.469-8.26-7.845-16.241-14.908-23.955-21.162-12.246-7.605-36.055-18.188-47.484-21.707-11.604-2.544-33.229-7.412-43.247-10.558-10.188-4.131-29.798-17.013-39.529-26.262-6.878-7.189-13.684-15.426-20.391-24.626-6.986-9.824-13.745-20.525-20.165-31.955-6.306-11.771-11.976-24.008-16.789-36.501-4.158-12.474-7.101-24.892-8.643-37.08-.461-11.818.66-23.188 3.388-34.026 3.772-10.399 8.972-20.293 15.394-29.688 6.824-9.23 14.305-18.248 22.086-27.139 7.224-9.226 14.13-18.64 20.423-28.349 5.049-10.396 9.234-21.205 12.622-32.389 2.252-11.778 4.072-23.438 5.778-34.756 1.599-11.41 3.833-22.111 6.98-31.97 4.033-9.418 9.449-17.758 16.297-25.013 8.081-6.678 17.533-12.322 28.201-17.065 11.528-4.386 23.817-8.135 36.597-11.427 12.92-3.391 25.836-6.61 38.557-9.793 12.246-3.667 24.012-7.486 35.245-11.487a481.907 481.907 0 0 0 29.991-14.56c8.899-5.625 17.537-11.321 26.029-16.972 8.131-6.056 16.375-11.928 24.767-17.493 8.329-5.739 16.969-11.012 25.965-15.744a196.564 196.564 0 0 1 28.164-11.914 173.82 173.82 0 0 1 29.968-6.403c10.124-.864 20.288-.76 30.373.371a140.569 140.569 0 0 1 29.143 7.966c9.239 4.234 18.149 9.536 26.689 15.918" stroke="#ACBDA1" stroke-width="2" stroke-linecap="round" stroke-dasharray="1 6"/><path opacity=".63" d="M768.958 323.126c7.438 7.098 14.498 15.054 21.247 23.818 6.594 9.068 13.004 18.859 19.263 29.322 6.297 10.634 12.596 21.871 18.999 33.667 6.609 11.872 13.432 24.245 20.544 37.056a3948.363 3948.363 0 0 0 23.154 39.456c8.268 13.323 16.711 26.831 25.161 40.415 8.401 13.17 16.503 26.206 24.019 38.926 6.912 11.972 12.778 23.374 17.246 33.983 4.019 13.831.164 34.447-7.965 41.233-7.071 3.381-15.579 6.145-25.105 8.613-13.763 4.025-35.606 17.443-40.661 28.841.191 9.949 2.636 21.762 7.127 35.308 6.535 14.821 14.011 30.694 21.56 47.088 7.226 16.153 12.677 31.677 15.416 45.942-.104 12.465-4.07 22.689-11.916 30.585-11.05 5.888-25.37 9.871-42.219 12.364-18.345 1.565-37.686 2.627-57.092 3.704-18.604 1.601-35.96 4.029-51.568 7.563-13.369 4.933-24.607 11.176-33.74 18.624-6.908 8.782-12.194 18.408-16.278 28.501-2.797 10.744-5.212 21.346-7.638 31.448-3.735 14.334-16.044 35.811-25.191 42.098-11.191 3.077-38.047-.268-52.684-6.295-10.04-5.237-19.988-11.659-29.658-19.128-9.685-7.936-18.982-16.686-27.768-26.099-8.778-9.572-17.073-19.589-24.875-29.895-7.891-10.107-15.402-20.266-22.546-30.34-7.433-9.561-14.652-18.824-21.67-27.684-7.504-8.091-14.76-15.476-21.776-22.144-11.253-8.489-33.444-21.432-44.338-26.388-11.332-4.119-33.253-12.233-43.872-16.96-10.969-5.588-32.474-20.856-43.109-30.927-7.311-7.53-14.403-15.926-21.253-25.137-6.877-9.631-13.317-19.952-19.199-30.78-5.527-10.986-10.212-22.262-13.871-33.601-2.884-11.178-4.483-22.164-4.657-32.832.843-10.226 3.193-19.974 7.002-29.201 4.681-8.784 10.593-17.119 17.534-25.058 7.188-7.838 14.884-15.556 22.786-23.253 7.305-8.11 14.299-16.509 20.744-25.31 5.276-9.523 9.833-19.555 13.668-30.007 2.814-11.117 5.226-22.177 7.524-32.999 2.115-10.938 4.751-21.254 8.16-30.771 4.124-9.118 9.435-17.194 16.03-24.183 7.68-6.393 16.654-11.713 26.802-16.089 11.025-3.912 22.902-7.122 35.4-9.755 12.813-2.58 25.836-4.918 38.859-7.109 12.788-2.542 25.3-5.166 37.405-7.957a618.909 618.909 0 0 0 33.292-10.668c10.047-4.331 19.739-8.794 29.157-13.285 8.983-4.93 17.836-9.741 26.647-14.342 8.57-4.826 17.226-9.269 25.993-13.222 8.664-3.963 17.492-7.292 26.479-9.918 8.897-2.427 17.929-4.057 27.051-4.789 13.467-.12 39.903 5.188 52.615 10.764 8.134 4.525 16.063 10.126 23.752 16.799" stroke="#ACBDA1" stroke-width="2" stroke-linecap="round" stroke-dasharray="8 9"/><path opacity=".63" d="M788.643 354.406c6.641 7.305 13.019 15.489 19.166 24.481 5.968 9.262 11.818 19.282 17.582 29.966 5.726 10.867 11.481 22.37 17.294 34.394 5.891 12.1 11.91 24.678 18.055 37.656a6897.62 6897.62 0 0 1 19.026 39.464c6.421 13.124 12.701 26.258 18.683 39.25 5.74 12.488 10.884 24.613 15.217 36.2 4.923 15.758 6.698 41.391 2.796 50.806-7.009 6.917-28.821 15.818-41.957 19.184-12.112 4.214-29.836 19.019-33.368 31.238.583 10.378 2.93 22.476 6.778 36.101 5.383 14.718 11.314 30.279 17.096 46.172 5.369 15.569 9.126 30.412 10.513 43.97-.992 11.788-5.235 21.354-12.751 28.646-10.225 5.297-23.299 8.63-38.657 10.379-16.791.674-34.684.633-52.946.338-17.903-.029-35.047.501-50.961 1.859-14.242 2.55-26.785 6.256-37.536 11.069-8.816 6.143-16.071 13.186-21.984 20.852-6.391 12.797-15.777 37.862-20.363 48.518-12.188 13.379-37.872 15.692-48.381 10.333-7.301-4.743-14.693-10.664-22.014-17.645-7.412-7.43-14.651-15.693-21.623-24.659a437.067 437.067 0 0 1-20.278-28.597 954.052 954.052 0 0 1-19.164-29.405c-6.462-9.397-12.803-18.57-19.057-27.468-6.718-8.243-13.261-15.916-19.678-22.979-10.365-9.356-31.329-24.808-41.912-31.315-11.18-5.854-33.469-17.604-44.553-24.135a224.433 224.433 0 0 1-22.633-15.607c-7.653-6.113-15.102-12.92-22.313-20.415-7.332-7.851-14.312-16.363-20.865-25.481-6.409-9.339-12.202-19.124-17.236-29.213-4.554-10.062-8.124-20.186-10.569-30.248-1.811-14.465 2.625-40.854 8.898-52.473 5.296-7.22 11.636-14.035 18.827-20.549 7.294-6.497 14.986-12.987 22.811-19.553 7.233-7.04 14.176-14.465 20.639-22.359 5.419-8.663 10.234-17.885 14.433-27.599 3.313-10.386 6.255-20.814 9.07-31.069 2.615-10.4 5.643-20.267 9.306-29.436 4.22-8.779 9.449-16.585 15.783-23.366 7.291-6.154 15.758-11.249 25.302-15.361 10.411-3.569 21.715-6.346 33.704-8.466 12.438-1.923 25.232-3.47 38.216-4.78 12.945-1.493 25.795-2.959 38.422-4.514a959.435 959.435 0 0 0 35.676-6.459 952.438 952.438 0 0 0 31.97-8.899c9.846-3.505 19.446-6.962 28.855-10.291 9.039-3.582 18.001-6.876 26.902-9.774 12.946-4.175 38.546-9.291 51.17-9.851 12.251.7 36.005 7.337 47.36 13.473 7.243 4.795 14.32 10.676 21.236 17.608" stroke="#ACBDA1" stroke-width="2" stroke-linecap="round" stroke-dasharray="11 5"/><path opacity=".41" d="M807.511 389.331c5.9 7.454 11.55 15.749 16.967 24.819 5.239 9.303 10.328 19.331 15.281 29.993 9.743 21.732 19.306 45.581 28.647 70.762 9.28 24.682 17.85 49.673 24.77 73.745 5.54 21.764 7.684 41.063 5.209 56.714-5.369 12.073-15.834 20.438-30.662 25.738-14.743 4.603-29.921 9.909-42.731 18.387-6.097 13.785-6.623 33.791-1.989 59.669 4.163 14.449 8.563 29.525 12.669 44.757 3.669 14.839 5.881 28.865 6.062 41.587-1.772 11.06-6.236 19.951-13.42 26.628-9.43 4.745-21.284 7.55-35.134 8.675-31.31-.821-65.094-3.666-97.197-5.507-27.483 1.828-49.336 7.616-65.603 16.678-10.878 12.758-18.804 25.858-25.457 37.082-8.99 13.35-33.899 11.105-48.901-4.4-10.628-13.403-21.076-29.876-30.971-48.333-5.221-9.085-10.359-18.364-15.429-27.746-5.39-9.006-10.786-17.957-16.214-26.753-5.868-8.278-11.702-16.142-17.524-23.569a486.004 486.004 0 0 0-18.974-19.555c-14.114-10.998-28.201-21.386-42.157-31.783-15.484-10.056-30.579-21.403-45.08-34.495-15.131-13.829-28.984-29.755-40.901-47.336-10.817-17.66-18.283-35.873-21.51-53.519-.229-16.047 4.556-30.482 14.189-42.92 11.601-11.25 25.998-21.782 41.61-32.457 7.003-6.061 13.773-12.563 20.152-19.581 5.459-7.82 10.433-16.237 14.938-25.174 3.693-9.628 7.105-19.353 10.371-28.979 3.075-9.83 6.462-19.192 10.367-27.95 9.243-16.338 22.343-28.825 39.359-37.29 20.184-6.114 43.4-9.264 68.303-10.49 25.468-1.271 50.765-2.365 75.087-3.741 22.887-3.003 44.449-6.424 64.748-9.744 18.789-4.402 36.811-7.714 54.173-9.155 16.196-1.237 31.93.355 47.059 5.325 10.614 4.797 30.551 19.697 39.881 29.908" stroke="#ACBDA1" stroke-width="2" stroke-linecap="round" stroke-dasharray="2 3"/><path opacity=".12" d="M822.79 425.951c10.073 15.304 19.038 33.48 27.021 53.936 7.54 20.886 14.343 43.427 20.248 66.731 5.504 22.609 9.543 44.861 11.405 65.606.508 18.465-2.308 34.169-9.077 46.342-8.543 9.417-20.729 15.845-35.576 20.27-13.608 4.881-26.657 11.264-37.116 21.18-4.732 15.166-5.108 35.878-1.866 61.5 6.227 28.399 10.959 56.866 10.536 81.727-6.683 18.744-22.324 29.027-45.615 31.765-28.064-1.963-58.851-6.771-89.018-11.662-27.16-2.267-50.055-1.432-68.128 2.38-13.321 7.586-23.159 16.23-30.68 24.076-8.335 10.594-25.244 9.58-34.834-3.305-6.933-11.253-14.071-25.626-21.199-42.28-7.975-16.253-16.298-33.496-25.028-51.052-10.416-15.836-21.206-30.785-32.39-44.801-12.982-12.537-26.247-24.874-39.632-37.395-14.67-12.072-29.012-25.25-42.635-39.669-13.886-14.568-26.192-30.463-36.201-47.132-8.629-16.073-13.761-31.939-14.724-46.677 1.674-12.975 7.808-24.257 18.13-33.724 11.607-8.639 25.532-16.908 40.402-25.656 12.719-11.008 24.369-24.254 34.544-39.811 7.474-18.227 14.644-36.364 22.756-53.015 9.301-15.592 21.791-27.646 37.66-35.846 18.644-5.783 40.222-8.363 63.69-8.636 24.467.318 49.301 1.342 73.602 2.512 23.427.099 45.739-.076 66.708-.204 19.606-1.098 38.085-1.42 55.431-.302 16.102 1.153 31.267 4.629 45.433 11.018 12.985 7.22 25.042 17.833 36.142 32.113" stroke="#ACBDA1" stroke-width="2" stroke-linecap="round" stroke-dasharray="9 9"/><path opacity=".37" d="M832.134 461.556c8.58 15.188 15.657 32.613 21.33 51.713 5.132 19.374 8.988 39.775 11.38 60.316 1.839 19.753 1.775 38.614-.644 55.56-3.491 14.967-9.913 27.23-19.428 36.417-10.315 7.4-22.963 12.722-36.951 17.044-12.15 5.746-23.201 13.572-31.804 25.024-3.926 16.362-4.642 37.491-2.957 62.473 3.595 27.023 5.548 53.542 3.122 76.349-7.41 17.178-21.926 26.422-42.629 28.401-24.791-2.711-52.269-8.899-79.805-16.107-25.818-5.616-48.539-9.109-67.351-10.143-14.917 2.505-26.333 6.447-34.932 10.452-8.872 6.7-21.618 4.996-27.527-5.731-4.221-9.192-8.735-21.463-13.527-36.168-5.623-14.362-11.878-30.185-18.909-46.929a663.926 663.926 0 0 0-27.729-45.409c-11.476-13.591-23.404-27.32-35.522-41.333-13.138-13.42-25.91-27.659-37.804-42.653-11.864-14.589-21.965-29.77-29.604-44.966-6.231-14.071-9.076-27.345-8.031-39.136 3.16-10.055 10.177-18.454 20.698-25.295 11.238-6.403 24.376-12.756 38.316-19.881 11.981-9.453 23.247-21.18 33.525-35.166 7.976-16.608 15.783-33.314 24.34-48.848 9.326-14.71 21.238-26.267 35.974-34.262 17.051-5.59 36.788-7.89 58.412-7.592 22.838 1.389 46.398 4.036 69.823 7.276 23.037 2.779 45.242 5.572 66.194 8.487 19.847 2.18 38.415 4.917 55.572 8.716 15.946 3.759 30.623 9.321 43.912 17.205 12.146 8.525 23.006 19.837 32.556 34.186Z" stroke="#ACBDA1" stroke-width="2" stroke-linecap="round" stroke-dasharray="11 8"/><path opacity=".65" d="M834.299 493.225c7.031 14.802 12.194 31.074 15.582 48.28 2.813 17.394 3.897 35.121 3.201 52.404-1.259 16.548-4.576 31.833-10.135 45.083-6.245 11.772-14.864 21.182-25.695 28.164-10.862 6.208-23.066 11.247-35.731 16.193-10.603 7.001-19.958 16.392-27.206 29.264-3.63 17.237-5.054 38.366-5.012 62.32 1.159 25.334.708 49.685-3.367 70.299-7.936 15.578-21.357 23.826-39.568 25.243-21.635-3.098-45.673-10.092-70.115-18.857-23.67-8.113-45.216-15.053-63.717-20.204-15.569-2.165-27.93-2.784-37.412-2.769-9.983 1.974-21.447-2.677-25.296-12.137-2.562-7.704-5.298-18.173-8.319-31.069-3.79-12.579-8.296-26.904-13.666-42.61-6.767-14.634-14.327-29.594-22.599-44.669-9.634-14.012-19.708-28.367-29.908-43.014-11.014-13.907-21.545-28.301-31.084-42.949-9.349-13.842-16.875-27.641-21.962-40.82-4.239-17.098 6.021-41.695 20.039-49.292 10.585-4.615 22.717-9.443 35.578-15.2 11.137-8.131 21.911-18.435 32.125-30.916 8.307-14.968 16.566-30.152 25.442-44.428 9.299-13.725 20.69-24.696 34.31-32.455 15.426-5.506 33.221-7.771 52.744-7.275 20.761 1.959 42.422 5.6 64.21 10.293 21.772 4.801 42.969 9.967 63.103 15.421 19.358 5.077 37.415 10.588 53.917 16.862 15.481 6.261 29.444 13.841 41.72 23.103 11.241 9.764 20.884 21.629 28.821 35.735Z" stroke="#ACBDA1" stroke-width="2" stroke-linecap="round" stroke-dasharray="8 8"/><path opacity=".22" d="M829.333 518.624c5.491 14.115 8.861 28.91 10.229 43.953.778 15.156-.362 30.042-3.42 44.069-3.523 13.463-9.022 25.474-16.456 35.619-7.764 9.253-17.302 16.662-28.305 22.411-10.55 5.82-21.762 11.281-32.903 17.326-9.204 8.446-17.254 19.311-23.647 33.302-3.777 17.645-6.119 38.302-7.682 60.868-.997 23.339-3.482 45.349-8.824 63.732-8.277 13.939-20.602 21.246-36.508 22.259-18.624-3.185-39.247-10.434-60.391-19.984-20.981-9.696-40.558-19.115-57.862-27.446-15.281-6.022-27.844-10.675-37.744-14.461-10.99-3.083-22.899-12.628-25.945-21.919-1.777-6.949-3.496-16.192-5.36-27.614a1037.61 1037.61 0 0 0-9.483-38.508c-5.082-13.663-10.882-27.964-17.27-42.596-7.561-13.747-15.442-27.894-23.301-42.203-8.504-13.495-16.421-27.136-23.269-40.559-6.664-12.416-11.557-24.28-14.203-35.094-1.209-13.429 11.785-30.871 25.293-35.74 9.738-3.267 20.758-6.918 32.459-11.611 10.268-7.003 20.459-16.027 30.445-27.043 8.476-13.33 17.008-26.939 26.043-39.843 9.222-12.62 20.048-22.896 32.605-30.355 13.887-5.472 29.706-7.852 47.01-7.476 18.39 2.045 37.704 6.051 57.294 11.485 19.798 5.999 39.233 12.737 57.783 19.986 18.063 7.238 34.92 14.92 50.238 23.156 14.5 8.314 27.356 17.528 38.397 27.831 10.126 10.74 18.439 22.88 24.777 36.455Z" stroke="#ACBDA1" stroke-width="2" stroke-linecap="round" stroke-dasharray="8 10"/><path opacity=".7" d="M818.438 536.491c4.04 13.175 5.86 26.343 5.626 39.198-.748 12.949-3.466 25.201-8.001 36.368-4.875 10.845-11.498 20.317-19.691 28.23-8.209 7.602-17.718 13.935-28.108 19.364-9.733 6.122-19.717 12.492-29.395 19.877-8.073 9.793-15.224 21.85-21.204 36.489-4.19 17.565-7.541 37.279-10.575 58.09-2.825 21.119-6.91 40.662-13.183 56.794-8.419 12.293-19.68 18.691-33.445 19.484-15.848-3.031-33.201-10.087-51.016-19.753-18.015-10.368-35.136-21.222-50.583-31.655-14.189-8.892-26.205-16.758-35.938-23.748-11.478-7.885-24.267-23.413-27.268-33.488-1.636-6.928-2.907-15.568-4.064-25.955-1.743-10.075-3.808-21.758-6.339-34.897-3.587-12.562-7.657-25.791-12.104-39.375-5.449-12.877-11.007-26.012-16.385-39.142-5.925-12.307-11.177-24.427-15.37-35.957-5.321-15.323-5.877-38.418-.1-45.429 8.782-4.541 35.141-11.19 50.624-16.512 9.363-6.055 18.914-13.918 28.565-23.52 8.448-11.706 17.06-23.717 26.087-35.183 9.043-11.404 19.302-20.87 30.822-27.91 12.423-5.406 26.341-8.003 41.425-7.962 15.948 1.699 32.714 5.541 49.748 11.023 17.327 6.379 34.443 13.798 50.842 21.959 16.089 8.458 31.14 17.432 44.747 26.864 12.968 9.65 24.348 19.877 33.872 30.741 8.775 11.234 15.64 23.26 20.411 36.005Z" stroke="#ACBDA1" stroke-width="2" stroke-linecap="round" stroke-dasharray="8 2"/><path opacity=".18" d="M803.707 547.094c2.703 12.01 3.295 23.569 1.954 34.472-1.784 10.976-5.381 21.086-10.59 30.098-5.423 8.926-12.305 16.715-20.373 23.375-7.967 6.8-16.81 12.904-26.157 18.702-8.714 6.846-17.503 14.326-25.944 22.974-7.244 10.848-13.865 23.621-19.735 38.379-4.727 16.95-9.07 35.289-13.345 54.058-4.289 18.706-9.577 35.734-16.416 49.636-8.373 10.665-18.585 16.223-30.407 16.872-13.347-2.677-27.705-9.145-42.352-18.347-15.017-10.274-29.405-21.563-42.595-33.027-12.504-10.594-23.355-20.621-32.335-29.98-11.201-11.809-24.457-33.287-27.648-44.707-1.736-7.446-2.896-15.985-3.685-25.724-1.286-9.453-2.581-20.115-4.017-31.939a3070.137 3070.137 0 0 0-7.474-35.34c-3.48-11.523-6.841-23.084-9.897-34.397-4.946-15.662-10.323-42.071-9.456-51.741 2.984-6.967 18.091-14.093 29.616-15.729 7.834-1.782 16.584-4.119 26.003-7.422 8.509-5.297 17.374-12.112 26.559-20.378 8.279-10.143 16.777-20.543 25.612-30.522 8.768-10.118 18.394-18.644 28.91-25.149 11.063-5.278 23.192-8.054 36.155-8.458 13.56 1.107 27.751 4.34 42.155 9.318 14.644 5.991 29.124 13.257 43.011 21.435 13.725 8.699 26.518 18.028 38.051 27.8 11.037 10.093 20.622 20.584 28.46 31.39 7.196 11.145 12.575 22.638 15.94 34.351Z" stroke="#ACBDA1" stroke-width="2" stroke-linecap="round"/><path opacity=".87" d="M787.347 552.123c1.567 10.723 1.258 20.803-.726 30.112-2.376 9.412-6.286 17.948-11.536 25.598-5.403 7.726-11.96 14.66-19.383 20.905-7.289 6.673-15.196 13.122-23.429 19.667-7.708 7.681-15.442 16.185-22.945 25.792-6.712 11.419-13.065 24.355-18.982 38.662-5.298 15.806-10.452 32.367-15.676 48.873-5.328 16.198-11.404 30.733-18.492 42.465-8.135 9.091-17.328 13.856-27.407 14.442-11.134-2.201-22.826-7.829-34.602-16.093-12.167-9.519-23.849-20.388-34.629-31.874-10.487-11.203-19.731-22.277-27.542-32.95-7.243-9.768-13.073-19.142-17.489-28.207-5.448-12.473-11.078-37.768-12.213-51.461-.981-9.096-1.73-18.912-2.295-29.446a1357.096 1357.096 0 0 1-3.604-30.975c-2.548-14.765-6.383-41.49-6.812-52.524 3.767-14.678 22.029-24.573 32.375-25.578 10.766-2.561 34.757-14.079 47.429-24.029 7.953-8.623 16.16-17.444 24.628-25.936 8.347-8.759 17.306-16.249 26.815-22.115 9.784-4.995 20.278-7.914 31.287-8.747 11.375.399 23.143 2.783 34.978 6.864 12.006 5.075 23.832 11.513 35.147 18.978 11.17 8.069 21.566 16.872 30.862 26.169 8.909 9.665 16.531 19.682 22.626 29.864 5.571 10.454 9.516 21.028 11.615 31.544Z" stroke="#ACBDA1" stroke-width="2" stroke-linecap="round" stroke-dasharray="8 3"/><path opacity=".18" d="M771.271 554.37c.849 18.943-4.301 35.338-13.966 49.015-10.155 14.444-23.499 27.729-38.163 41.393-13.342 17.763-26.727 39.388-39.201 64.771-11.239 28.992-23.161 57.242-36.768 78.257-16.156 12.77-34.169 11.357-52.335-1.148-19.422-17.53-36.511-39.359-49.442-61.543-11.93-20.265-19.509-39.587-22.838-58.082-3.587-17.04-4.754-34.929-4.028-53.748-1.648-18.079-1.981-35.21-.873-49.943.656-18.263 17.84-34.328 35.556-35.587 11.844-4.073 26.205-10.868 42.532-21.007 14.668-15.525 30.682-29.948 47.665-40.421 17.395-8.37 36.4-9.642 55.396-4.396 19.221 8.571 37.189 21.946 51.743 37.967 13.306 17.412 22.061 36.094 24.722 54.472Z" stroke="#ACBDA1" stroke-width="2" stroke-linecap="round" stroke-dasharray="6 7"/><path opacity=".52" d="M756.513 557.007c-.485 16.275-5.717 30.907-14.442 43.902-9.162 13.907-20.857 27.761-33.66 42.572-12.128 18.015-24.715 38.929-36.964 61.888-11.822 24.842-24.229 48.076-37.438 64.934-14.686 10.513-29.626 9.698-43.784-.324-15.03-14.543-28.022-33.768-37.799-54.289-9.484-19.955-15.582-39.47-18.181-57.794-3.002-17.342-3.634-34.384-2.064-50.834-.253-16.038 1.173-29.996 4.087-41.133 3.444-13.942 21.96-25.435 37.684-26.882 10.486-4.101 23.215-10.189 37.848-18.5 13.608-12.67 28.205-24.303 43.189-32.872 15.013-7.576 30.674-9.564 45.757-6.119 14.979 5.896 28.596 16.251 39.276 29.423 9.642 14.288 15.537 30.108 16.491 46.028Z" stroke="#ACBDA1" stroke-width="2" stroke-linecap="round" stroke-dasharray="11 10"/><path opacity=".15" d="M743.119 562.812c-1.405 13.723-6.465 26.898-14.205 39.458-8.188 13.368-18.434 27.351-29.703 42.359-11.083 17.121-22.844 36.135-34.65 55.844-11.714 20.366-23.871 38.771-36.164 51.803-13.04 8.415-25.317 8.12-36.236.568-11.428-11.27-20.965-26.991-27.945-44.501-7.035-17.846-11.465-35.833-13.113-52.768-2.128-16.42-2.14-32.041-.012-46.226.803-13.97 3.281-25.319 7.117-33.791 5.032-10.933 23.49-20.46 37.307-22.635 9.303-4.165 20.502-9.56 33.341-16.222 12.292-10.045 25.223-19.036 38.111-25.69 12.737-6.426 25.48-8.662 37.241-6.626 11.478 3.568 21.5 10.984 28.981 21.157 6.655 10.964 10.236 23.708 9.93 37.27Z" stroke="#ACBDA1" stroke-width="2" stroke-linecap="round" stroke-dasharray="11 7"/><path opacity=".8" d="M730.329 573.412c-1.954 11.321-6.727 23.005-13.567 34.799-7.226 12.324-16.2 25.55-26.114 39.528-9.98 15.13-20.723 31.244-31.625 47.155-10.953 15.854-22.146 29.73-33.071 39.382-11.211 6.468-21.17 6.561-29.54 1.241-8.571-8.061-15.423-19.92-20.185-33.688-4.906-14.5-7.788-29.6-8.55-44.04-1.169-14.325-.591-27.831 1.851-39.755 3.008-16.469 14.355-36.885 22.773-41.675 5.556-3.354 12.675-5.717 21.154-7.599 8.202-4.088 17.899-8.793 28.856-13.967 10.735-7.619 21.75-14.21 32.448-18.989 15.605-6.044 41.871-1.487 50.479 8.524 4.374 7.929 6.259 17.818 5.091 29.084Z" stroke="#ACBDA1" stroke-width="2" stroke-linecap="round" stroke-dasharray="5 5"/><path opacity=".65" d="M716.871 588.892c-4.819 18.082-18.009 40.003-34.868 63.014-17.38 24.767-37.489 49.772-55.847 64.784-18.498 7.109-31.568-2.764-37.836-21.664-6.679-21.78-7.535-45.819-1.997-65.027 3.223-19.179 11.368-30.579 22.529-35.46 10.037-7.854 24.779-14.381 42.776-20.214 17.889-12.208 35.61-18.73 49.028-17.155 12.398 2.336 19.012 13.679 16.215 31.722Z" stroke="#ACBDA1" stroke-width="2" stroke-linecap="round" stroke-dasharray="4 3"/><path opacity=".62" d="M701.608 607.724c-4.478 13.544-15.231 30.725-28.764 48.151-13.949 17.699-29.984 34.456-44.346 43.895-14.125 5.091-23.649-.635-27.84-12.704-4.382-14.105-4.329-30.889.593-45.261 3.612-14.454 11.012-24.077 20.452-29.439 8.924-7.366 20.996-13.428 34.785-17.671 20.455-9.793 46.509-4.506 45.12 13.029Z" stroke="#ACBDA1" stroke-width="2" stroke-linecap="round" stroke-dasharray="4 3"/><path opacity=".9" d="M683.921 627.07c-7.611 18.014-31.572 44.98-51.483 56.608-18.983 4.153-25.617-14.247-17.543-33.121 5.839-19.163 23.152-31.808 41.767-35.368 19.45-10.269 32.773-6.404 27.259 11.881Z" stroke="#ACBDA1" stroke-width="2" stroke-linecap="round" stroke-dasharray="11 5"/></svg>